<svg width="120" height="120" viewBox="0 0 120 120" fill="none" xmlns="http://www.w3.org/2000/svg">
  <defs>
    <linearGradient id="babyGradient" x1="0%" y1="0%" x2="100%" y2="100%">
      <stop offset="0%" style="stop-color:#ec4899;stop-opacity:1" />
      <stop offset="50%" style="stop-color:#8b5cf6;stop-opacity:1" />
      <stop offset="100%" style="stop-color:#06b6d4;stop-opacity:1" />
    </linearGradient>
    <linearGradient id="heartGradient" x1="0%" y1="0%" x2="100%" y2="100%">
      <stop offset="0%" style="stop-color:#f472b6;stop-opacity:1" />
      <stop offset="100%" style="stop-color:#ec4899;stop-opacity:1" />
    </linearGradient>
  </defs>
  
  <!-- Background circle -->
  <circle cx="60" cy="60" r="58" fill="url(#babyGradient)" opacity="0.1" stroke="url(#babyGradient)" stroke-width="2"/>
  
  <!-- Baby head -->
  <circle cx="60" cy="45" r="22" fill="url(#babyGradient)" opacity="0.8"/>
  
  <!-- Baby body -->
  <ellipse cx="60" cy="75" rx="18" ry="20" fill="url(#babyGradient)" opacity="0.6"/>
  
  <!-- Eyes -->
  <circle cx="54" cy="42" r="2" fill="white"/>
  <circle cx="66" cy="42" r="2" fill="white"/>
  <circle cx="54" cy="42" r="1" fill="#374151"/>
  <circle cx="66" cy="42" r="1" fill="#374151"/>
  
  <!-- Smile -->
  <path d="M 54 48 Q 60 52 66 48" stroke="white" stroke-width="2" fill="none" stroke-linecap="round"/>
  
  <!-- Arms -->
  <ellipse cx="45" cy="68" rx="8" ry="4" fill="url(#babyGradient)" opacity="0.7" transform="rotate(-30 45 68)"/>
  <ellipse cx="75" cy="68" rx="8" ry="4" fill="url(#babyGradient)" opacity="0.7" transform="rotate(30 75 68)"/>
  
  <!-- Legs -->
  <ellipse cx="52" cy="88" rx="6" ry="10" fill="url(#babyGradient)" opacity="0.7"/>
  <ellipse cx="68" cy="88" rx="6" ry="10" fill="url(#babyGradient)" opacity="0.7"/>
  
  <!-- Heart accent -->
  <path d="M60,25 C55,20 45,20 45,30 C45,35 60,50 60,50 C60,50 75,35 75,30 C75,20 65,20 60,25 Z" 
        fill="url(#heartGradient)" opacity="0.3"/>
  
  <!-- Sparkles -->
  <g opacity="0.6">
    <path d="M25,30 L27,35 L32,33 L27,38 L25,30 Z" fill="url(#heartGradient)"/>
    <path d="M90,25 L92,30 L97,28 L92,33 L90,25 Z" fill="url(#heartGradient)"/>
    <path d="M85,85 L87,90 L92,88 L87,93 L85,85 Z" fill="url(#heartGradient)"/>
    <path d="M20,75 L22,80 L27,78 L22,83 L20,75 Z" fill="url(#heartGradient)"/>
  </g>
</svg>